<svg version="1.2" xmlns="http://www.w3.org/2000/svg" viewBox="0 0 1080 1080" width="1080" height="1080">
	<title>logo-alphaisarab</title>
	<style>
		.s0 { fill: #000000 } 
	</style>
	<g id="g@">
		<path id="g@" class="s0" aria-label="g@"  d="m297.1 859.3c0.7 0 1.5-0.3 2.5-0.7 1.1-0.7 2.5-1 3.2-1l1.8 0.3c1.4 0 5-0.7 8.9-1.8 3.6-1.4 6.8-2.1 8.2-2.1l1.1 0.3 0.4 0.4c0.3 0 0.7-0.7 0.7-1.4 0-0.7 0.7-1.5 1.8-1.5l2.1 0.8c1.1 0 1.8-1.1 1.8-2.5 0-1.1 0.3-2.2 1.1-2.2l0.7 0.4 1.4 0.3c1.1 0 2.1-0.3 3.2-1.4 1.1-0.7 2.5-1.1 3.6-1.1h1l0.8 0.4c0.7 0 1.4-0.7 1.4-1.8 0-1.4 0.7-2.5 1.8-2.5h0.7c1 0 1.4-0.7 1.4-2.1v-1.8c0-1.1 0.4-1.8 0.7-1.8l1.8 0.7c3.6 0 13.5-7.5 15.7-12.8 1.4-2.5 2.8-4.7 3.9-4.7h0.7c1.5 0 2.2-1.7 2.5-3.5 0.4-2.2 1.4-3.6 2.5-3.6l2.5 0.7c0.4 0 0.7 0 0.7-0.3v-1.5c0-3.2 3.2-8.5 7.2-11.4 2.5-2.1 4.2-4.6 4.2-6 0-1.5 1.1-2.9 2.2-3.2 1-0.4 2.1-2.2 2.5-4 0.3-1.7 1.8-4.6 3.2-6.4 2.8-3.5 6-11.7 6-14.6 0-0.4 0-0.7-0.3-0.7h-0.4c0-0.4 1.1-1.4 2.5-2.2 1.5-0.7 2.5-1.7 2.5-2.8l-0.3-0.7v-1.1l0.7-4.6 5-12.9c0-0.3 1-3.2 2.5-6 0.7-2.2 1.4-4.3 1.4-5.7l-0.4-1.5c0-1.4 1.1-3.9 2.9-6 2.1-2.5 3.9-7.2 3.9-10.4 0-3.5 1.1-6.4 2.9-7.1 1-0.7 2.1-2.1 2.1-4.3v-0.7c0-2.5 1.4-6 3.6-8.5 2.5-2.5 4.6-8.2 5.3-12.5 0.7-4.7 2.2-8.6 2.9-9.3 1-0.4 1.8-2.9 1.8-5.3 0-2.5 0.7-5 1.7-5.8 1.1-0.7 1.8-2.8 1.8-4.9 0-5 4.3-16.5 5.7-16.5 0.7 0 2.2-3.9 2.9-8.5 0.7-4.6 1.8-8.2 2.8-8.2 0.8 0 1.5-1.1 1.5-2.2v-1c0-1.8 0.7-7.2 2.1-11.8 1.1-3.9 2.1-8.2 2.1-9.6v-1.1c0-0.7 0.4-1.4 1.1-2.1 2.2-1.5 7.1-15.7 8.9-24.6 1.1-3.6 2.5-8.2 4-10 1.4-2.2 2.8-6.4 2.8-10 0-3.2 0.7-6.1 1.8-6.1 0.7 0 1.4-0.7 1.4-1.4l-0.7-2.8c0-0.8 0.4-1.5 1.1-1.5 1 0 1.8-1.8 1.8-3.9 0-2.5 1.7-7.8 3.9-12.5 1.4-3.5 2.8-7.1 2.8-8.9l-0.3-1.4c0-0.7 0.3-1.8 1-2.2 1.1-0.3 1.8-2.8 1.8-5 0-1.7 1.8-9.2 4-16.4 2.1-6.4 3.2-11 3.2-13.9 0-2.5-1.1-3.9-2.5-3.9l-2.5 1.1c-1.1 0.7-2.5 1.1-3.2 1.1-0.8 0-1.1 0-1.1-0.4-1.4 0-10.4 18.2-11.8 24.6-0.7 2.9-7.8 19.6-11 25-1.5 2.8-4.3 10.3-6.5 16.7-3.9 12.2-5.3 15.4-9.2 24.3-4.3 9.6-10.4 26-18.9 51.3-16.8 48.2-20.7 59.6-23.9 65.3-5.4 10.7-6.1 12.1-6.1 14.6 0 1.1-1.8 6.1-3.9 10.7l-7.5 16.4c-1.8 4.3-3.6 8.9-3.6 10.4 0 1-2.1 6.4-4.6 11.4-2.5 5.3-4.6 10-4.6 10.7 0 2.1-17.2 30.3-19.3 31.7l-1.1 1.1c0 0.3 0 0.3 0.4 0.3 0.4 0 0.4 0.4 0.4 0.7 0 0.4 0 1.1-0.8 1.8-7.1 8.6-9.6 11.4-9.6 12.9 0 0.7-1.1 1.4-2.8 1.4-1.5 0-2.2 0.3-2.2 1.1l0.4 1c0 0.7-0.4 1.8-1.5 2.5-1 1.5-3.5 4.3-4.9 6.4-1.5 2.2-4 4-5 4-1.1 0-1.8 0.7-1.8 1.4l0.7 1.8c0 0.3 0 0.3-0.4 0.3l-3.5-0.7-0.7 0.4 0.7 1.4c0 1.8-2.9 3.9-5.4 3.9-0.7 0-1.4 0-1.8-0.3l-1-0.4-0.4 0.4 1.1 3.9c0 0.4-0.4 0.7-1.1 0.7l-3.6-0.7c-0.7 0-1 0.4-1 1.1l1 3.2-0.3 0.3c-0.4 0-1.4-0.7-2.9-1.8l-2.5-1.7-0.3 0.3 1.4 4.3c0 0.4-0.3 0.7-1.1 0.7l-4.2-0.7c-0.8 0-1.1 0.4-1.1 1.1l0.7 1.8c0 1-1.1 1.7-2.8 1.7-1.8 0-4 0.8-4.7 1.5-0.7 0.7-1.8 1.4-2.5 1.4-0.7 0-4.6 1.4-8.9 2.8-5 1.8-11.4 2.5-18.9 2.5-18.9 0-42.8-5.3-59.9-13.9-3.9-2.1-6.8-3.2-7.5-3.2l-0.7 0.4 0.3 0.3c1.1 1.5 5.8 4.3 10.4 6.5 4.6 2.1 8.2 4.6 8.2 5.3 0 0.7 1.1 1.4 2.5 1.8 1.1 0 8.5 2.1 16 5 7.5 2.8 15.7 5.3 17.9 5.7 3.9 0.7 16.4 2.8 22.1 3.6 1.8 0 3.5 0.7 4.3 1.4l1.7 0.3 5.7-0.7c1.8-0.7 3.6-0.7 4.7-0.7 1 0 1.8 0 1.8 0.7 0 0.4 0.3 0.7 1 0.7zm-25.3-16c0.7 0 1.4-0.4 1.4-0.7-0.3-0.4-1-0.7-2.1-0.7l-1.4 0.3-1.1 0.7c0 0.4 0.7 0.4 2.1 0.4zm-1.7-3.6c1.4 0 4.2-1 6.4-2.8l2.5-2.2-9.3 4-1.4 0.7c0 0.3 0.3 0.3 1.8 0.3zm11.7-3.5c2.2 0 23.6-11.1 23.6-12.2l-0.4-0.3-5.3 2.1c-2.9 1.4-6.1 2.9-6.8 2.9 0-0.4 2.5-2.5 6.8-4.7 3.9-2.1 7.4-3.5 9.6-3.5l1.4 0.3-0.7-2.1c0-1.1 1.1-1.8 3.2-1.8l3.2 0.4-0.3-1.1c0-1.1 4.2-5.7 9.9-10.4 6.8-5.7 10.4-9.9 10.4-11.7l-0.4-1.5 0.4-0.7 0.7 0.4c2.1 0 18.5-18.9 18.5-22.1 0-0.7 1.8-3.2 4-5.4 5.3-6 37.4-72.7 47.4-99.5 2.5-7.1 7.5-19.2 10.3-27.1 6.1-14.9 19.3-52.4 27.9-78.1 13.2-39.6 38.5-104.8 46-119.8 2.1-3.9 3.5-7.5 3.5-8.9l-0.7-1.4c0-0.4 0.4-0.7 1.1-0.7 0.7 0 1.8-1.5 1.8-3.3l2.1-9.6c0-1.4-0.3-2.1-1.4-2.1-0.7 0-1.4 0.3-1.4 1v1.1c0 0.7-0.8 1.1-1.8 1.1-1.1 0-2.5 0-4.3-0.7-1.8-0.7-2.5-1.1-2.5-2.5 0-1.4 0.7-3.9 2.8-9.3 2.2-5.7 4-12.8 4.3-15.7 1.1-11 3.2-22.5 4.3-24.2l0.4-0.4-0.4-0.3-2.1 1.4c-1.5 1-6.1 7.8-9.7 14.6-3.9 6.4-8.5 13.5-10.3 15.7-2.1 1.8-3.6 4.3-3.6 5 0 1.1-2.8 4.6-6 8.2-3.6 3.6-9.7 11.4-13.6 17.1-4.3 6.1-11 15-15.3 20.3-4.7 5.4-8.2 10.4-8.2 11.4 0 1.5-2.5 4.3-5.4 6.8-3.2 2.5-5.7 5.7-5.7 6.8 0 1.4-0.7 2.5-1.8 2.5-1 0-3.2 2.5-5 5.7-1.7 2.8-4.2 5.3-5.7 5.3-1.4 0-2.5 0.8-2.5 1.8 0 0.7-3.5 5.7-8.2 10.7-4.6 4.7-8.5 9.3-8.5 10 0 1.4-24.6 24.3-26 24.3-0.8 0-2.5 2.1-4 4.6-1 2.5-3.2 4.6-4.2 4.6-1.8 0-6.1 3.2-20 15.7-2.5 2.2-8.2 6.4-12.9 9.7-4.6 3.2-9.2 6.4-9.9 7.4-0.4 0.8-0.8 0.8-1.1 0.8-0.4 0-0.4 0-0.4-0.4l-0.3-0.4c-0.7 0-3.6 1.5-6.8 3.6-6.1 3.9-22.5 8.6-31.4 8.6-1.1 0-1.4-1.1-1.4-2.9 0-2.8 1.1-6.8 2.8-9.3 0.8-1 2.5-7.1 4.7-13.2 1.8-6 4.3-12.4 5.7-13.9 1.4-1.7 4.3-6.7 6.4-11.4 1.8-4.6 5-9.6 6.4-11 1.4-1.1 2.9-3.6 2.9-5 0-1.4 0.7-2.5 1.8-2.5 1 0 3.2-2.5 4.2-5.4 1.5-2.8 8.6-12.1 16.4-20.7 7.5-8.5 14.7-16.7 15.7-18.9 1.1-1.7 8.6-8.2 16.8-14.6l20.3-15c5-3.9 12.9-6.7 18.2-6.7 1.4 0 2.5 0 3.6 0.3 1.8 0.4 5.3 4 7.5 7.5 5 7.9 9.9 10.7 19.9 11.4h2.5c4.7 0 6.1-0.7 8.2-3.9 1.1-2.1 1.8-3.2 1.8-5 0-1.8-0.7-3.9-2.5-8.2-5.3-12.5-30.3-47.1-33.5-47.1-0.4 0-0.4 0-0.4 0.4l-0.3 0.4-2.2-1.8c-1-0.7-1.7-2.2-1.7-3.2v-0.4c0.3-0.7 1.7-1.1 3.5-1.1 2.9 0 7.2 1.1 8.2 2.9 0.7 1.4 3.2 2.5 5.4 2.8 2.1 0 2.8 0.4 2.8 1.1 0 0.7-0.3 1.4-0.7 2.5-0.3 1.1-0.7 1.4-0.7 2.1 0 0.4 0.4 0.4 1.1 0.4l3.5-0.4c1.1 0 1.5 0.4 1.5 0.8v0.3c0 0.7 0.7 1.1 1.4 1.4 1.1 0.4 2.1 2.2 2.8 4.7 0.8 2.1 1.1 3.2 1.5 3.2v-3.2c0-5.4-15.4-26.1-21.4-28.6-3.2-1-8.2-1.7-12.9-1.7-6.4 0-12.8 1-14.6 2.8-1.4 1.8-4.3 2.9-6 2.9-6.5 0-52.5 24.2-60.7 32.1l-11 9.6c-10 8.9-39.6 37.4-39.6 38.5 0 0.4-2.5 3.9-6.1 7.5-3.9 4.3-11 14.3-16.4 22.1-5 7.9-10 13.9-10.7 13.9h-0.3c-0.4 0-0.7 0-0.7 0.7l0.3 1.8c0 1.4-1.1 3.6-2.1 5.4l-2.2 2.5 2.9-6.8-0.4-0.4-1.4 1.5c-1.4 1.4-2.5 4.2-2.9 6.4 0 2.5-1.7 8.2-3.9 12.8-7.5 16.4-9.6 21.8-11.4 31.8-1.1 3.9-1.4 9.2-1.4 13.1v5c0 1.8 0 2.9-0.7 2.9h-0.7c-0.8 0-1.1 0.3-1.1 1.1 0 1 0.7 1.7 1.8 1.7 1 0 1.4 0.8 1.4 2.2l-0.4 2.1v2.5c0 3.6 0.4 8.9 1.1 13.9l2.5 18.2c0.4 3.2 3.2 11.4 6.1 17.8 7.5 15.7 16 22.5 29.9 22.9 5.4 0.3 11.1 1.8 12.9 2.8l2.1 1.4-0.3-1c0-1.1 1.4-2.9 3.5-4.3 2.2-1.4 3.2-2.5 3.2-3.6 0-0.7 0-1-0.3-1.8l-0.7-1.7c0-1.1 1-1.5 3.5-1.8h0.7c2.5 0 5.4 1.1 6.8 2.5 1.8 1.8 8.6 3.2 14.3 3.2l4.3-0.4c1-0.3 4.6-1 8.2-1.4 10.3-1.4 16.7-4.3 35.6-17.1 16.8-11.4 26.1-19.3 47.8-41 4.6-5 8.2-7.9 9.3-7.9 0.3 0 0.7 0.4 0.7 0.7 0 1.5-0.7 3.3-1.4 4-1.1 0.3-2.9 5-4.3 10.3-1.4 4.6-2.9 8.6-3.6 8.6h-0.3c-0.4 0-1.1 1.8-1.5 4.2 0 2.5-0.7 5.4-1.7 5.8-0.8 0.7-1.5 2.8-1.8 5.3-0.4 2.1-1.8 6.4-3.2 9.3-1.1 1.8-1.8 3.9-1.8 5.3l0.3 2.2c0 1.4-0.3 3.2-0.7 5-5.7 11.7-11.7 24.9-14.2 31-1.5 3.5-4.7 10.7-7.2 15.7-2.1 5.3-4.3 9.6-4.3 10.3-1.4 4.7-7.1 13.9-8.5 13.9l-0.7-0.3c-1.1 0-1.8 0.7-2.2 1.4l-0.7 1.1 0.4 0.3 2.8-1 0.4 0.7c0 1-2.2 4.2-5.4 7.5-5.3 5.3-12.4 14.9-12.4 16.7h0.3l2.2-0.7 0.3 0.4c0 1-1.4 3.2-3.9 6.7-1.8 2.9-3.9 4.3-5 4.3l-1.4-0.3c-0.4 0-0.4 0-0.4 0.3l0.7 1.4c0 3.2-5.7 10-8.2 10l-1.4-0.3c-0.4 0-0.4 0-0.4 0.3v0.7c0 0.7-0.3 1.5-1 1.8-2.5 0.4-6.8 5.7-6.8 7.5 0 0.7-0.7 1.4-1.8 1.4l-2.1-0.7c-1.1 0-1.8 0.7-1.8 1.4 0 0.8-0.4 1.5-1.1 1.5l-1.4-0.4c-0.4 0-1.1 0.4-1.8 1.4-1.1 2.9-20.3 12.5-24.6 12.5-1.4 0-2.1 0.4-2.1 1.1v0.7c0 1.1-7.5 1.8-16.8 1.8-11.1 0-23.9-1.1-28.2-2.5l-8.9-2.9c-0.7 0-6.4-2.5-12.5-5.7-14.2-7.1-27.8-17.1-33.1-24.6-1.8-2.5-4-4.2-5.4-4.2h-1.1c-0.7 0-1.4-0.4-1.7-1.5l-0.8-0.7v2.2c0.4 2.1 1.8 3.5 4 3.5h1c1.1 0 2.2 0.4 2.2 1.1 0 2.5 21.7 22.8 24.2 22.8h0.4c0.7 0 0.7 0.4 0.7 1.1v0.7c0 1.4 1.1 2.1 2.9 2.1h1c1.5 0 2.9 0.7 3.6 1.5l0.3 1-0.3 0.4-2.5-1.4-0.4 0.3 0.4 1.1c0.4 0.7 1.4 1.4 2.5 1.4l1.4-0.3c1.8 0 6.4 2.1 11.1 4.6 4.3 2.5 6.7 4.6 6.7 5.7 0 0.4 0 0.7-0.3 0.7l-0.7 0.4c0 0.3 1 0.3 2.8 0.3 6.4 0.4 36.8 8.2 36.8 10 0 0.4 2.8 0.4 6.7 0.4h6.1c7.8 0 12.8 0.3 12.8 1l-0.3 1.5c0 0.3 0.3 0.7 0.7 0.7 1.4 0 3.6-1.1 6.8-2.9l3.9-1.4 0.4 0.4-0.4 1c0 0.7 0.7 1.1 2.1 1.1 1.8 0 3.6-1.1 4-2.5 0.7-1.1 2.1-2.1 4.2-2.1h1.5c5.3 0 12.8-2.5 12.8-4.3v-0.7c0-0.4 1.4-0.7 2.9-0.7 1.4 0 2.4 0 2.4 0.7 0 1-4.2 3.2-13.9 8.2-15.3 8.2-23.9 10.7-40.3 10.7l-10.3-0.4c-23.9-1.4-43.1-7.1-62-18.5-15-9-33.6-29.3-37.5-41-2.5-7.2-3.9-10.4-5.7-10.4-0.7 0-1.1 0.4-1.8 1.4-1.4 2.2-2.1 4.7-2.1 7.5 0 2.9 1 6.1 2.5 7.9 1 1 1.8 2.1 1.8 2.5 0 0.3-0.4 0.7-1.1 0.7-0.4 0-0.4 0.3-0.4 0.7 0 3.2 7.5 17.1 11.4 20.3l1.8 1.1v-0.4c0-0.7-1.8-3.5-5.7-8.9-1.8-2.8-3.5-6.4-3.5-7.5l0.3-0.7c0.7 0 2.1 1.1 3.2 2.9 3.2 5 18.9 19.6 20.7 19.6 1.1 0 4.6 2.1 8.9 5.3 9.3 7.2 30.3 17.9 35.3 17.9 1.4 0 4.3 0.7 6.4 1.7 1.8 1.1 9.7 2.9 17.2 3.6 5 0.4 10.3 0.7 14.9 0.7 9.3 0 17.5-0.7 22.9-2.5 3.2-1 5.7-1.8 6.7-1.8 0.8 0 1.1 0.4 1.1 0.8 0 0.3-0.7 1-2.1 2.1-1.5 1.1-2.5 2.1-2.5 2.5zm23.5-39.2c-0.7 0-1.1-0.4-1.1-1.1v-0.7c0.8-1.1 1.8-1.8 2.2-1.8 0.3 0 0.7 0.7 0.7 1.8 0 1.1-0.7 1.8-1.8 1.8zm3.9-2.5c0-0.4 0.7-1.1 2.5-2.2 2.2-1.7 4.3-2.8 5.4-2.8 0.7 0 0.7 0.3 0.7 0.7l-0.4 1.1c-0.3 0.7-2.8 2.1-5 2.5zm11.5-5.4l-0.4-0.3c0-0.4 2.5-2.5 5.3-5 2.5-1.5 4.3-2.5 5.4-2.5 0 0 0.4 0 0.4 0.3 0 0.7-2.5 2.9-5.8 4.7-2.1 1.7-4.2 2.8-4.9 2.8zm18.9 0.4l-0.8-0.4c0-0.7 1.1-1.8 3.2-3.6l2.5-1.7c0 0.3-0.7 1-1.7 2.5-1.5 1.7-2.9 3.2-3.2 3.2zm-5.8-8.6c-0.3 0-0.7-0.3-0.7-0.7 0-1.4 2.5-3.9 4-3.9l0.7 0.3v0.4c0 0.3-0.7 1.8-1.8 2.8-0.7 0.8-1.4 1.1-2.2 1.1zm7.2-6.4c0-0.4 1.4-2.5 3.5-4.6 2.5-2.5 4.7-4.7 5.4-4.7 0 0.4-1.4 2.5-3.6 4.7-2.5 2.4-4.6 4.6-5.3 4.6zm-197.6-2.2c-0.3 0-0.3-0.3-0.3-0.7 0-0.7 0.7-2.8 1.7-4.6l1.5-1.4c0.3 0 0.3 0.3 0.3 0.7 0 1.1-0.7 2.8-1.8 4.6zm215.8-18.2c-0.7 0-1.1-0.3-1.1-1l0.4-1.1c0.7-0.7 2.1-1.8 2.8-1.8 0.7 0 1.1 0.4 1.1 1.1l-0.4 0.7c-0.3 1.1-1.7 2.1-2.8 2.1zm-34.2-8.5l0.7-1.8c2.5-5 4.6-8.2 5.3-8.2 0.4 0 0.4 0.3 0.4 0.7 0 1.1-1.8 3.9-3.9 6.4zm-94.9-103.8c-5.7-1.4-12.5-7.4-12.5-11l0.7-1.4h0.4c0.3 0 0.7 0.3 0.7 1.4 0 0.7 0.4 1.4 1.1 1.4l1.4-0.3c2.1 0 7.5 5 8.2 7.8l0.4 1.8c0 0.3 0 0.3-0.4 0.3zm9.6 0.4c-1.8 0-3.9-1.1-4.3-1.8l-0.3-1c0-0.8 0.3-0.8 0.7-0.8 1.1 0 2.5 0.4 4.3 1.8 1 0.7 1.8 1.1 1.8 1.4 0 0.4-0.8 0.4-2.2 0.4zm57.4-8.6c-0.7 0-1-0.7-1-1.7 0-1.5 1-2.9 2.8-2.9 3.6 0 15.7-6.1 20.3-10.7 2.2-1.8 10-8.2 17.9-13.9 7.5-5.7 17.1-13.9 21.4-18.2 3.5-3.5 7.5-6.4 8.5-6.4l1.1 0.4c0.4 0 0.4 0 0.4-0.4l-0.4-1.4c0-2.5 5.4-7.9 7.8-7.9l1.1 0.4 0.7 0.3-0.7-2.1c0-1.1 1.1-2.9 2.5-3.9l2.2-1.1-1.1 2.5c0 0.4 0.3 0.7 1.1 0.7 1.7 0 3.2-3.2 3.2-5.3 0-0.7 0-1.5-0.4-1.8v-0.4c0-1 1.1-2.8 2.5-3.9l1.8-1.4 0.3 0.3-0.7 1.1-0.3 1.1c0 0.7 0.3 1 1 1 1.1 0 2.2-0.7 2.2-2.1 0-1.1 3.6-6.1 7.8-10.7 4.3-4.6 10.4-11.4 12.9-15l5.3-6.4c-2.1 6.8-2.8 10-5.3 16.1-4.3 10.3-67.4 70.6-74.2 70.6-1.4 0-2.5 0.7-2.9 1.4-1 2.1-17.4 13.2-25.6 16.8zm-45.7-76c-0.3 0-0.3-1.1-0.3-3.2 0-9.3 7.4-28.9 12.1-32.1l1.1-1.1-0.8-0.3c-0.3 0-0.3 0-0.3-0.4 0-3.6 20.3-28.9 38.5-47.4 12.5-12.9 13.9-13.9 20.3-17.1 2.5-1.5 7.5-5 11.1-8.2 3.5-2.9 7.1-5.4 8.2-5.4l0.3 0.4c0 0.7-3.2 3.9-7.4 7.5-15 12.4-51.4 50.2-51.4 53.4 0 0.8-1.4 2.9-3.2 5-5.7 6.1-22.8 35.7-22.8 39.3 0 2.1-1.5 5.3-2.9 7.1-1.4 1.8-2.1 2.5-2.5 2.5zm99.2-119.1l-0.8-0.4c0-0.7 1.5-1.8 3.6-3.5l2.1-1.5-1.4 2.2c-1.4 1.8-2.8 3.2-3.5 3.2zm113.7-20.7l0.7-2.1c0.7-1.5 1.1-2.5 1.8-2.5l0.4 0.3 0.3 0.7c0 0.7-0.7 1.8-1.4 2.5-1.1 0.7-1.4 1.1-1.8 1.1zm-254.3 397.6c0.4 0 0.8 0 0.8-0.3 0-0.4-0.8-1.1-2.5-2.2-2.2-1-4.3-1.8-5-1.8l-0.7 0.4c0 0.4 0.7 1.1 2.1 2.1 1.4 1.1 3.9 1.8 5.3 1.8zm-51.3-5.3c0-1.1-2.1-4.7-5.4-8.6-3.5-4.3-6.7-9.3-7.1-10.7-0.3-0.7-1.1-1.4-1.4-1.4l-0.7 0.4v0.3c0 1.4 2.5 5.7 6.4 10.4 3.9 5.3 7.8 9.6 8.2 9.6zm35.7-0.4c1 0 2.8-0.7 5.3-1.8l2.1-1c0-0.4-0.3-0.4-1-0.4h-0.7c-1.5 0-3.6 0.7-5 1.4l-1.5 1.5c0 0.3 0.4 0.3 0.8 0.3zm-32.1-1.8c0.3 0 0.3 0 0.3-0.7l-0.3-2.1c-0.8-1.1-1.1-2.2-1.8-2.2l-0.7 1.5 0.7 1.8c0.7 1.4 1.4 1.7 1.8 1.7zm23.5-8.2c2.1 0 3.2 0 3.2-0.3 0-0.4-1.4-1.4-4.6-3.6-1.8-1.4-2.9-1.8-3.2-1.8h-0.4l0.7 1.5c1.1 1 1.8 2.1 1.8 2.8l-0.4 0.7c0 0.4 1.5 0.7 2.9 0.7zm-10.3-2.8c0 0 0.3-1.8 0.3-4.3v-2.1l-0.7 0.3c-0.4 1.1-0.7 1.4-1.4 1.4-0.4 0-1.1-0.3-2.5-1.4l-1.4-0.7c0 0.4 0.3 1.1 1.7 2.5zm-18.5-26c0.7 0 1.1-0.7 1.1-1.8 0-1.1-1.1-2.2-2.2-2.2-0.7 0-1 0.4-1 1.1l0.3 1.1c0.4 1.1 1.4 1.8 1.8 1.8zm148.7-4.3l2.5-0.7c1.4-0.7 2.8-1.8 2.8-2.9 0-0.3-0.3-0.7-0.7-0.7-0.7 0-1.4 0.4-2.1 1.1-1.8 1.4-2.9 2.5-2.9 2.8zm-171.1-7.8l4.2-1.1c4.3-1.4 6.1-3.5 6.8-8.5l0.7-5.4c0-1.8-0.3-2.5-1-2.5-0.7 0-1.8 0.7-3.2 2.5l-2.2 2.9c-0.3 0-0.7-1.1-0.7-2.5 0-2.2-0.7-3.2-1.8-3.2-1.1 0-2.5 1.4-3.5 3.5-0.8 1.5-1.1 2.9-1.1 4.3 0 1.4 0.3 2.5 0.7 3.9 0.7 1.8 1.1 3.2 1.1 4.7l-0.4 1.4zm118.4-90.9l-0.7-1.5c-0.7-1-2.1-1.8-3.6-1.8-0.3 0-0.7 0-0.7 0.4 0 0.4 0.4 0.7 1.4 1.4 1.8 1.1 2.9 1.5 3.2 1.5zm15 0.3c1.1 0 1.8-0.3 1.8-0.7 0-0.7-0.7-1.4-1.8-2.1l-1-0.4c-0.4 0-0.8 0.4-0.8 1.1 0 1 0.8 2.1 1.8 2.1zm4.7 0c2.5 0 6.4-2.8 6.4-4.3v-0.3h-0.4c-0.7 0-2.5 0.7-4.3 1.8-1.4 1-2.1 2.1-2.1 2.5 0 0.3 0 0.3 0.4 0.3zm379.8 77.8c1.7 0 2.8 0 2.8-0.8 0-0.3-0.7-0.7-1.8-0.7-2.1 0-2.8 0.4-2.8 0.7 0 0.4 0.3 0.8 1.8 0.8zm-5-1.8c0-0.7-1.8-1.8-5-3.6-4.7-2.5-7.5-3.6-8.2-3.6-0.4 0-0.4 0-0.4 0.4 0 0.4 1.4 1.4 5 3.2 4.3 2.5 6.8 3.6 8.2 3.6zm24.6-5.4c1.4 0 2.2-0.7 2.2-2.1 0-1.1-0.4-1.8-0.8-1.8-0.3 0-0.3 0-0.7 0.4-0.3 0.3-0.7 1-1 1.4-0.4 0.3-0.4 0.7-0.4 0.7 0 1.1 0 1.4 0.7 1.4zm36-0.3c2.9-0.7 4.3-1.5 4.3-2.5 0-0.4-1.1-0.7-3.6-0.7-1 0-2.4 0.3-3.9 0.7-1.4 0.3-2.1 1-2.1 1.8 0 0.7 1.1 0.7 2.8 0.7zm-78.1-1.8c0.8 0 1.5 0 1.5-0.4 0-0.7-2.2-2.1-5.7-4.3-5-2.8-11.5-7.8-18.9-14.9-9.3-8.2-14.3-12.2-15-12.2-0.4 0-0.4 0-0.4 0.4 0 0.4 1.5 2.1 3.9 4.6 6.5 6.5 14.3 13.2 22.9 19.6 7.1 4.7 11 7.2 11.7 7.2zm87.1 0c1.4 0 2.1-0.7 2.1-1.8 0-1.1-0.4-1.8-1.1-1.8-0.3 0-0.7 0.4-1.4 1.1-0.4 0.3-0.7 1.1-0.7 1.4 0 0.7 0.3 1.1 1.1 1.1zm-51-1.8c0.7 0 0.7 0 0.7-0.4 0-0.3-0.7-0.7-2.9-1.4-3.9-0.7-7.1-1.1-9.6-1.1-0.7 0-1.1 0-1.1 0.4 0 0.4 1.4 0.7 4.3 1.4 2.9 0.7 5.7 1.1 8.6 1.1zm58.4 0c1.5 0 2.2-0.4 2.2-0.7 0-0.4 0-0.7-0.4-1.1-0.3-0.3-1-0.7-1.4-1.1-0.7-0.3-1.1-0.3-1.4-0.3-0.4 0.3-0.7 0.7-0.7 1.4 0 1.1 0.7 1.8 1.7 1.8zm5.7-1.8c1.1 0 1.8-0.7 1.8-1.8 0-1.4-0.7-2.1-1.8-2.1-1 0-1.7 0.7-1.7 2.1 0 1.1 0.7 1.8 1.7 1.8zm5.8-1.8c1 0 1.7-0.7 1.7-2.1 0-1.1-0.7-1.8-1.7-1.8-1.5 0-2.2 0.7-2.2 1.8 0 1.4 0.7 2.1 2.2 2.1zm4.2-2.5l0.7-0.3c1.1-1.8 4.7-2.9 11.1-3.2 1.1 0 1.4-0.4 1.8-1.1 0-0.7-0.7-1.1-2.2-1.1-1-0.3-2.1-0.3-3.2-0.3-1 0.3-2.1 0.7-2.8 1l-2.5 0.8c-2.2 0-3.2 1.4-3.2 3.9 0 0.3 0.3 0.3 0.3 0.3zm-49.5-1.4c1 0 1.7-1.1 1.7-2.8 0-1.8-0.7-2.5-1.7-2.5-1.1 0-1.5 0.7-1.5 2.5 0 1.7 0.4 2.8 1.5 2.8zm23.9-4.3c1.7 0 2.5-0.3 2.5-1.4 0-1.1-0.8-1.8-1.8-1.8-0.4 0-1.1 0.4-1.5 0.7-0.7 0.4-1 1.1-1 1.5 0 0.7 0.3 1 1.8 1zm45.2-2.1c1.8 0 2.9-0.4 2.9-1.1 0-0.3-0.4-0.7-1.1-1.8-1-0.7-1.4-1-2.1-1-0.4 0-0.7 0.3-0.7 1-0.4 0.7-1.1 0.7-2.2 0.7l-2.1-0.3c0 0.3 0.4 0.3 0.7 0.7 0.4 0.4 0.7 0.7 1.8 1.1 1.1 0.3 1.8 0.7 2.8 0.7zm-30.6-1.1c0.3 0 0.7-0.3 1-0.7 0.4-0.4 0.8-0.7 1.1-1.1 0.4-0.3 0.4-1 0.4-1.4-0.4-0.3-0.7-0.3-1.5-0.3-1 0-1.7 0.7-1.7 1.7 0 1.1 0.3 1.8 0.7 1.8zm12.8-4.6c3.9-0.7 6.1-1.4 6.4-2.2 0-0.3-0.3-0.7-1.4-1-1.1 0-2.1 0-3.6 0-4.2 0.3-6.4 1-6.4 2.1 0 0.7 1.8 1.1 5 1.1zm24.3 0.7c0.3 0 0.7-0.4 1.8-1.4 0.7-0.7 1-1.8 1.4-2.5-0.4-0.4-0.4-0.7-0.7-0.7-0.4 0-0.4 0-0.7 0.3-0.4 0.4-1.1 1.1-1.5 2.2-0.3 1-0.3 1.4-0.3 1.7zm-12.2-5.3c2.2 0 4.7-1.4 7.9-3.9 2.8-1.8 4.6-2.5 5.3-2.5 0.4 0 0.4 0 0.4 0.3 0.7 0 1.8-0.7 2.8-2.5 1.1-1.8 2.2-2.5 3.3-2.5h0.3c1.4 0 5.4-2.8 12.1-8.5 7.5-6.1 11.1-9.7 11.1-10.4 0-1-0.7-1.7-1.8-1.7-1.1 0-1.8 0.7-1.8 2.4 0 2.9-2.5 4.7-7.5 5.8-1 0.3-6 4.6-14.9 12.8-2.5 2.1-4.3 3.2-4.7 3.2-0.3 0-3.2 1.1-7.8 3.6-3.6 2.1-5 3.2-5 3.5 0 0.4 0 0.4 0.3 0.4zm24.6-2.5c1.1 0 4-1.8 9-5.4 5.3-3.5 7.8-5.7 7.8-6.4-0.7 0-3.2 1.8-8.2 5-5.7 3.9-8.6 6.4-8.6 6.8zm-166.5-5c0.4 0 0.4-0.7 0.4-1.4 0-1.1-1.1-2.2-3.2-3.6-2.5-1.4-3.6-2.1-4-2.1h-0.3c0 0.3 1 1.4 2.8 3.5 1.8 1.8 3.2 2.9 3.6 3.2zm185.1-1.7c0.3 0 1-0.4 2.1-0.8 0.7-0.7 1.1-1.4 1.1-2.1 0-0.3-0.4-0.7-1.1-0.7-0.3 0-1.1 0.4-2.1 0.7-0.7 0.7-1.1 1.1-1.1 1.8 0 0.7 0.4 1.1 1.1 1.1zm-201.9-11.8v-0.4c0-0.3-0.7-1.4-2.1-3.2-1.4-1.8-3.6-3.9-6.1-6.4-2.5-2.5-5.3-6.1-8.5-10.7-3.2-4.6-6.1-8.5-8.2-12.5-1.8-3.5-2.9-6-2.9-7.5v-0.3c0-1.1-0.3-1.4-1.4-1.4-2.9 0-6.8-10.4-11.4-30.7-3.2-13.6-5-32.8-5-58.1 0-10.4 0.3-18.9 1.4-26.1 4.3-28.9 10-54.9 16.8-77.7 7.8-24.6 21-53.2 39.9-86 3.6-6 6.8-11 9.3-14.6l3.6-4.6c18.1-25.7 37-47.1 57-64.2l7.5-6.4c6.1-5.7 16.4-13.2 31-22.5 14.3-9.3 22.1-13.9 22.5-13.9 0.7 0 1.4-0.4 2.5-0.7 3.6-1.8 5.3-3.2 5.3-4.3l-5.3 1.1c-8.6 2.1-20 7.5-34.2 16-18.2 11.1-37.1 25.7-56.7 43.5-14 12.9-21.1 20-21.1 21.4 0 1.1-3.2 5-9.3 11.4-6 6.5-9.2 10.4-9.2 11.8 0 1.1-1.1 2.1-2.9 2.9-1.8 1-2.8 2.5-2.8 4.2 0 2.2-1.5 5-4.7 8.2-3.2 3.6-4.6 6.1-4.6 8.2 0 2.2-0.4 3.3-1.4 3.3-1.1 0-3.2 3.2-6.8 9.6-2.9 6.8-5.4 10.7-7.5 12.5-1.4 1.4-1.8 2.5-1.8 3.5l0.4 1.1c0 1.1-1.1 2.1-2.5 2.9-1.8 1.7-2.5 3.2-2.5 4.2 0 1.5-0.7 3.6-1.8 6.1-1.1 2.8-2.5 6.1-3.9 9.3-3.6 7.5-5.7 12.4-6.4 15.3-4.3 18.2-7.9 30-10.7 35.7-0.8 0.7-1.1 1.7-1.1 2.5 0 0.7 0 1 0.3 1.4 0.4 0.3 0.4 1.1 0.4 1.4-0.4 0.7-0.7 1.4-1.4 1.8-0.4 0.4-0.7 1.4-0.7 2.5v1.4c0 2.9-0.4 5.4-1.5 7.9-1.7 5.7-3.2 13.9-3.9 24.6-0.7 4.6-1.1 7.5-1.4 8.2-1.4 4.6-2.2 16.7-2.2 36 0 10.3 0.4 15.3 1.1 15.3 0.7 0 1.1 3.2 1.1 9.3 0 6.1 1.4 14.6 3.9 25.7l1.1 6c0.7 3.6 1.8 6.8 3.2 9.7l0.3 1.4c0.8 1.8 1.8 3.9 2.5 6.8 1.1 2.5 1.8 4.6 1.8 6.4v0.3c0 0.8 0.7 2.2 2.5 4 1.8 1.7 2.9 3.2 2.9 4.2l-0.4 1.8c0 0.4 0.4 0.7 1.1 0.7 0.7 0 1.1 0.4 1.1 0.8l-0.4 2.1c0 0.7 0.4 1.1 1.1 1.1 1 0 1.4 0.3 1.8 0.7l-0.4 0.7c0 1.1 1.1 2.5 3.2 4.6 3.2 2.2 4.6 3.9 4.6 5.7 0 1.8 5.4 7.9 15.7 18.6 5 4.3 7.5 6.4 8.2 6.4zm206.9-1.8c1.8 0 2.5-1.1 2.5-3.6 0-2.5-0.4-3.5-0.7-3.5-0.4 0-0.8 0.3-1.1 1-0.7 0.8-1.4 1.5-1.8 2.5-0.7 1.1-0.7 1.8-0.7 2.2 0 1.1 0.3 1.4 1.8 1.4zm-224-54.2l0.7-1.4c0-0.7 0-1.4-0.3-2.2-0.4-0.7-0.4-0.7-0.7-0.7-0.4 0-0.8 0.4-0.8 1.8 0 1.8 0.4 2.5 0.8 2.5zm-1.8-7.5l0.3-0.7c0-0.7-0.3-1.8-1-3.9-0.7-2.2-1.5-3.2-1.8-3.2-0.4 0-0.4 0-0.4 0.3 0 2.2 0.4 3.9 1.1 5.4 0.4 1.4 1.1 2.1 1.4 2.1zm-3.5-12.8v-1.8l-0.8-13.2c-0.7-8.9-1-17.1-1-25.3 0-8.2 0.3-15.7 1.4-22.5 0.7-6.8 1.1-13.2 1.1-18.5v-1.5c0-2.5 0.3-3.9 1.4-3.9l1.8 0.7h0.3c0-0.3 0-0.7-0.3-1.4-0.4-0.3-0.7-1.4-0.7-2.5 0-3.6 0.3-6.8 1-9.6 1.8-6.1 3.2-9.3 4.3-9.3h1.1l-0.4-0.3c-0.3-0.4-0.3-0.8-0.7-1.5-0.3-0.7-0.7-1.4-0.7-2.1 0-1.4 0.4-2.2 1.1-2.2l1 0.4c0.4 0 0.8-0.4 0.8-1.1 0-0.7-0.4-1.7-0.8-3.5-0.3-1.8-0.7-2.9-0.7-3.6 0-0.7 0-1.1 0.4-1.1l1.1 0.4c0.3 0 0.7-0.4 0.7-1.1 0-0.7 0-2.1-0.4-3.9-0.3-1.8-0.7-2.9-0.7-3.9 0-0.7 0-1.1 0.4-1.1l2.4 1.1c0.4 0 0.4-0.4 0.4-0.7l-0.7-3.2c0-1.1 0.3-1.5 1.4-1.5 0.7 0 1.1-1 1.1-2.8l-0.4-1.5c0-3.5 0.7-7.1 2.5-10.7 2.2-4.6 4.7-6.7 7.9-6.7 0.3 0 0.7 0 0.7 0.3 0 0.4-0.4 0.7-0.7 1.1-0.7 0.7-1.1 1.8-1.1 3.6l0.4 2.1c0 0.4-0.4 0.7-0.8 0.7l-2.4-0.3c-1.8 0-2.9 1.4-2.9 3.9 0 1.4 1.4 2.1 3.9 2.5 2.5 0 3.6-0.4 3.6-1.1l-0.4-1.4 0.4-3.9c1.4-5.7 2.8-9.3 4.6-10.4 1.8-1.1 2.5-3.5 2.5-7.1 0-2.5-0.7-3.6-2.1-3.6l-0.4 0.4c0 0.3 0 0.3 0.4 0.7 0.3 0.3 0.3 1.1 0.3 1.4 0 0.4 0 0.7-0.3 1.8-0.4 1.1-1.4 2.1-2.5 3.6-1.4 1.4-2.5 2.1-3.6 2.1-0.7 0-1.1-0.4-1.1-1.4 0-1.1 0.4-1.4 1.1-1.4 0.7 0 1.1-0.8 1.4-1.8l-0.7-2.5c0-1.1 0.4-2.2 1.5-3.6 1-1.1 2.5-1.8 4.2-1.8 1.1 0 1.8 0.4 2.5 0.7 0.7 0.7 1.1 1.1 1.5 1.1 0.3 0 0.7-0.4 0.7-1.1 0-1.4-0.4-2.1-1.1-2.1-1.1 0-1.8-0.4-2.1-1.1-1.1-1.4-1.8-2.5-1.8-3.2 0-0.3 0-0.7 0.3-0.7l2.2 0.7c0.3 0 0.3 0 0.3-0.3l-0.7-3.6c0-0.4 0-0.4 0.4-0.4l2.1 0.8c0.4 0 0.4 0 0.4-0.4l-1.1-3.6c0-0.3 0-0.3 0.4-0.3h0.7c0.3 0 1-0.7 1.8-2.2 0.7-1 1.4-2.5 1.7-4.2 0.4-1.5 0.4-2.5 0.4-3.3v-1.4c0-0.3 0.4-0.7 0.7-0.7l1.8 1.4c1.8 1.8 2.8 2.9 2.8 3.6-0.3 0-1 0-1.4-0.4l-0.7-0.3c-0.4 0-0.4 0-0.4 0.3 0 0.4 0 0.8 0 1.1l0.4 3.2c0 1.1-0.4 1.8-1.4 1.8-1.1 0-1.8 0.4-1.8 0.7 0 0.4 0 0.4 0.4 0.7 0.3 0.4 0.3 0.7 0.3 1.1 0 1.1-0.7 2.1-1.8 3.2-1.4 1.4-2.1 2.9-2.1 4.3 0 0.7 0.3 1.1 1.1 1.1 0.3 0 1-0.4 1.4-1.1 0.3-0.7 1.4-2.5 3.5-5.4 2.2-1.7 3.3-3.5 3.3-6 0-2.2 6-12.5 18.5-30.7 6.1-9.6 8.9-14.6 8.9-15.3 0-0.7 1.1-2.5 3.6-5.4 2.5-2.5 3.6-4.6 3.6-6.4 0-1.8 0.7-2.5 2.1-2.5 0.3 0 1.1 0 1.8-0.3 0.7 0 1.4 0 2.5-0.4 0.7 0 1.4-0.7 2.5-1.8 1-1.1 1.4-2.1 1.4-3.6 0-1.4 9.6-11.4 28.9-29.9l14.2-13.2c11.8-11.1 23.9-20.3 36.8-27.8 22.4-13.9 39.6-22.1 51-24.6 3.9-0.7 7.8-2.2 11.7-4 5.7-1.7 15.4-3.2 28.9-3.5l16.4-0.4c4.7 0.4 7.5 0.7 8.2 1.1 0.4 0.7 1.8 1.1 3.6 1.1l3.9-0.4c1.8 0 2.5 0.4 2.5 1.1 0 1 0.4 1.4 0.7 1.4 0.4 0 0.4 0 0.7 0h1.5c1.8 0 4.6 1.1 8.5 2.9 4 1.7 6.1 2.8 7.2 2.8 0.3 0 0.3 0 0.3-0.3 0-0.4 0-0.4 0.4-0.4 1 0 5.7 4.6 14.6 13.5 6.1 6.1 10 12.2 12.1 18.9 1.8 6.8 2.9 15 2.9 25.4 0 12.5-1.8 27.8-5.4 45.6-3.2 16.1-7.1 30-11.4 41-3.9 9.7-8.9 19.6-15 30.3-8.2 14.3-17.4 26.8-27.8 37.5-12.5 12.5-19.2 18.9-20.3 18.9-1.4 0-2.9 1.1-4.6 2.8-1.8 1.8-3.6 2.9-5.8 2.9-2.1 0-3.2-1.8-3.2-5.4 0-2.8 0.4-9.6 1.5-20.6l0.7-6.5c0.3-3.2 0.7-5 1.8-5 1 0 1.4-1 1.4-3.2v-1.4c0-1.4 0.3-2.1 1.1-2.1 3.2-0.4 4.6-5.7 4.6-15.4 0-9.6 1.1-14.2 2.8-14.2 0.4 0 1.1 0.3 1.5 0.7 0.3 0.3 1 0.7 1.4 0.7 1.4 0 3.2-3.2 5.3-9.3 3.6-9.6 8.6-20.3 14.7-32.8 2.8-6 4.3-10.3 4.3-12.8 0-2.2 0.7-3.6 2.1-3.9 1.4-0.4 2.1-5.4 2.1-15 0-4.7-1-8.2-3.5-10-2.5-1.8-4-3.6-4-5 0-1.1 0.4-2.9 1.1-4.6 1.1-2.9 1.8-5.4 1.8-7.9 0-5-1.8-7.5-5.4-7.5-2.5 0-3.5 0.4-3.5 1.5 0 1-2.2 3.9-6.4 8.9l-9.3 10.3c-1.8 2.2-2.9 3.9-2.9 5 0 1.1-1 3.9-3.5 8.6-2.5 4.6-4 6.7-4.3 6.7-0.7 0-1.1 0-1.1 0.4l0.7 2.9c0 0.3-0.3 0.7-1 0.7-0.8 0-1.5 1.4-1.8 3.9 0 2.5-0.4 4.3-1.4 4.6-1.1 0.4-1.8 1.1-1.8 1.4 0 0.4 0 0.8 0.3 1.1 0.4 0.4 0.4 0.4 0.4 0.7 0 0.7-0.4 1.1-1.4 1.1-1.1 0-1.8 0.4-1.8 0.7 0 0.4 0 0.4 0.3 0.7 0.4 0.4 0.4 0.7 0.4 1.1 0 0.7-0.4 1.4-1.1 2.5-0.7 1.1-1.8 4.3-3.5 10.3-1.8 6.1-2.9 9-4 9-0.3 0-0.7-0.4-0.7-0.8 0-0.3 0-0.3 0-0.7l0.7-2.5c0-1-0.3-1.4-0.7-1.4-0.7 0-1.1-0.4-1.1-0.7 0-0.4 0.4-1.8 1.1-3.9 0.4-2.2 1.4-5 3.2-8.9 1.5-3.6 2.5-6.8 3.6-10 1.1-2.9 1.4-4.7 1.4-5.7 0-0.8 0.7-2.9 2.5-6.8 1.8-3.6 3.6-7.1 5.4-10.7 1.7-3.2 3.2-5.4 4.2-6.1 0.8-0.3 1.1-0.7 1.1-1 0-0.4-0.3-0.4-0.7-0.4-0.7 0-1.1 0-1.1-0.4 0-0.3 0.4-0.7 1.5-1.7 1-0.8 2.5-2.5 4.2-5.7 1.8-3.3 3.6-6.1 4.7-9 1-2.8 1.8-5 1.8-6 0-2.2-0.8-3.2-2.5-3.2-2.5 0-6.5 2.8-11.8 8.9-13.2 13.9-25.3 34.2-36.4 61l-2.5 5.7c-2.8 7.1-4.6 10.7-5.3 10.7v-0.4c0-0.3 0-1.4 0.3-2.8 0.4-1.5 0.4-3.3 0.4-5.8 0-4.6-0.7-10.6-2.2-17.8-1.4-6.8-3.5-11.7-6-15-3.9-4.2-8.6-6.4-14.3-6.4-9.3 0-19.6 3.6-30.7 10.7-7.4 4.7-12.1 8.2-13.9 10-18.1 18.2-29.6 31.4-34.9 39.9-3.9 6.8-6.4 10.7-7.5 11.1l-2.5 5.4c-1.1 2.4-1.8 3.9-2.5 3.9-1.1 0-2.1 1.4-3.2 3.9-2.9 5.3-4.3 10-4.3 13.9l0.4 3.2c0 0.4 0 0.7-0.4 0.7l-1.4-0.7c-0.4 0-0.4 0.4-0.4 0.7l0.7 3.6c0 0.3 0 1.1-0.3 2.1-0.4 1.1-0.7 1.8-1.1 2.5-0.3 1.1-0.7 1.5-1 1.5-0.4 0-0.4 0-0.4-0.4 0-0.4 0.4-1.1 0.7-2.9 0.4-1.4 0.7-2.5 0.7-3.2 0-0.3 0-0.7-0.3-0.7-1.5 0-5 6.1-10.4 17.9-3.5 7.4-5.3 12.1-5.3 14.6 0 0.7 0.3 1 0.7 1l3.2-0.7c0.4 0 0.4 0 0.7 0 0 0.4 0 0.4 0 0.7l-0.3 2.5c-4 12.9-6.8 19.3-8.6 19.3l-1.1-0.4c-1.8 0-2.5 2.9-2.8 8.2-0.4 3.6-0.7 7.2-1.5 10.7-0.7 4-1.4 6.8-1.7 9-0.8 2.1-1.5 3.2-2.2 3.2l-0.3-0.4c-1.1-2.5-1.8-6.8-1.8-12.8 0-7.5 1.1-16.1 2.8-25.7 1.8-8.2 3.6-15 6.1-20.7 1.4-3.2 3.2-7.1 5.7-12.5 2.5-5.3 4.6-10.3 7.1-14.9 4.3-9.3 6.5-15 6.5-16.8l-0.4-0.7c-1.4 0.3-4.3 4.6-8.6 12.8-3.9 8.2-8.2 17.1-13.2 26.4-4.9 9.3-8.5 17.5-10.7 25-2.8 10-4.2 21.4-4.2 34.2 0 6.1 1 11.1 3.2 15 1.8 3.9 3.5 6 4.6 6 1.1 0 1.4 2.2 1.4 6.1l-0.3 7.5c0 2.1 0.3 4.3 0.7 6.4 0.4 2.2 1.1 3.6 2.1 4.7 1.1 1 1.8 1.7 2.2 2.1 0.3 0.3 0.3 0.7 0.3 1.1l-0.3 0.7c0 1 0.3 2.1 1 3.2 4.3 8.2 9.7 12.8 16.1 14.2 3.9 0.4 6.1 1.5 6.1 2.5 0 1.1 1.7 1.8 4.9 1.8 6.5 0 10.4-1 12.2-2.8 1.4-1.8 2.8-2.5 4.6-2.5 1.4 0 7.5-5.4 18.2-15.7 10.7-10.4 16-16.1 16-17.8 0-1.5 1.1-2.5 2.9-2.9 1.8-0.4 2.5-1.1 2.5-1.8l-0.4-0.7c0-1.1 1.1-2.5 3.6-5 2.5-2.5 3.6-3.9 3.6-5l-0.4-0.7c0-0.7 0.7-1.4 2.5-2.1 1.8-0.7 2.5-2.2 2.5-4 0-1.7 1.8-4.2 5.4-7.1 2.1-2.1 3.2-3.2 3.2-3.6l-2.2 0.4c0-0.4 0.7-1.4 1.8-3.2 1.1-1.8 2.1-2.5 3.2-2.5h0.7c0.7 0 1.1-0.7 1.1-2.5 0-1.4 1.1-2.8 3.2-4.3 1.8-1.4 3.9-4.3 5.7-8.5 4.7-9 11.1-18.9 18.6-30.7 1 12.5 2.8 23.2 5 32.4 1 2.9 2.1 9.3 3.9 19.3 1 11.1 2.5 18.5 3.9 23.2 4.3 14.3 13.2 24.9 27.1 32.4 3.2 1.5 6.4 2.2 10.3 2.2 7.5 0 15.7-2.9 25.4-8.2 6.4-3.9 9.6-6.8 9.6-7.9v-0.7c0-1.1 0.7-1.4 1.8-1.4 1 0 3.5-1.4 7.1-4.6 8.6-7.5 13.9-13.6 16.4-18.2 3.9-6.5 6.8-11.1 9.3-14.3 4.3-6.4 6.4-10 6.4-11.1v-1c0-0.7 0.4-1.1 0.7-1.4 1.4-0.8 4.3-6.5 8.9-16.8 1.1-2.5 2.5-5 3.6-7.1 1.1-2.2 1.4-3.6 1.4-4.7 0-0.7-0.3-1-0.7-1-0.7 0-1.1 0-1.1-0.4 0-0.4 0.8-0.7 2.2-1.4 1.4-0.7 2.1-1.1 2.1-1.5 0-0.3-0.3-0.3-1.1-0.3-1 0-1.4-0.4-1.4-1.4 0-1.8 1.1-5 2.9-9.3 1.8-3.9 3.2-7.9 3.5-11.4 0.4-1.8 1.8-5.7 4.3-11.8 2.5-6.1 3.9-8.9 4.7-8.9 0.3 0 0.3 0.3 0.3 1.1 0 0.7 0 1.4-0.3 2.5-0.4 1-0.8 2.1-1.1 2.8-0.4 0.7-0.7 1.4-0.7 1.8 0 0.3 0 0.3 0.3 0.3 0.4 0 1.1-0.3 1.8-0.7 0.4-0.3 1.1-0.7 1.8-1.7 0.4-0.8 0.7-1.8 0.7-2.9 0-1.1 0.4-1.4 0.7-1.4 0.4 0 0.7 0.3 1.1 1.4 0.4 1.1 1.1 1.4 1.4 1.4 1.1 0 1.8-1 1.8-3.5 0-1.8-1.1-3.6-2.8-5.7-2.2-2.2-3.3-4.3-3.3-6.1 0-2.1 1.1-3.2 2.9-3.2 1.1 0 1.8 1.1 1.8 2.8 0 0.4 0 0.7-0.4 0.7-0.3 0-0.3 0-0.7 0l-1.8-0.3c-0.3 0.3-0.7 0.7-0.7 1.1 0 1 0.4 1.7 1.4 1.7 1.5 0 2.9-0.7 4-2.1 1-1.4 1.7-2.5 1.7-3.2 0-0.7-0.3-1.8-1.4-2.9-1.1-1-1.8-2.1-1.8-3.5 0-0.4 0-0.4 0.4-0.4l2.1 0.4c2.5 0 5-6.4 6.8-19.3 1.8-12.8 2.5-30.3 2.5-52.8 0-25.3-1.4-41.7-4.3-49.2-0.3-1-0.7-2.8-0.7-5l0.4-2.8c-0.4-0.4-0.7-0.7-1.5-0.7-1 0-1.4-2.5-1.4-7.9-1.1-11-6-22.4-15-34.9-9.2-12.5-19.6-21.4-31-27.1-16.4-6.8-33.9-10-52.4-10-18.9 0-39.2 3.6-61 10.7-7.5 2.8-12.5 4.3-15 4.3l-1-0.4c-0.4 0-0.8 0.7-0.8 1.8 0 0.7-0.3 1.1-0.7 1.1h-0.3l-1.5-0.4c-0.7 0-1 0.4-1 1.4 0 1.1-0.7 1.8-1.8 1.8-1.1 0-3.6 0.7-7.1 2.2-9 3.9-15 7.1-18.9 10.3-6.1 4.6-12.9 9.3-20 13.9-33.2 23.9-63.1 57.1-89.9 98.8-15.3 24.6-27.4 50.6-37.1 78.1l-5 15.7c-2.5 6.8-3.5 11-3.5 12.5 0 1.4-0.7 4.2-2.2 8.9-1.7 4.6-2.5 9.2-2.5 13.9 0 4.6-0.3 6.8-1 6.8-0.7 0-1.1 0.3-1.1 1.4l0.7 5.7c0 1.4-0.3 2.1-1.4 2.1-1.1 0-1.4 0.4-1.4 0.7l0.3 0.4c0.4 0.4 0.4 1.1 0.4 2.1-0.4 1.1-0.7 2.5-1.1 4-0.4 1.4-0.7 2.5-0.7 3.2v0.3c0 0.4 0 0.4 0.3 0.4l3.6-1.1 0.7 0.4c0 0.3-0.7 1.4-2.1 2.8-1.4 1.8-2.2 2.9-2.2 3.2 0 0.4 0.4 0.4 0.8 0.4 0.3 0 0.3 0.3 0.3 1.4-0.3 1.1-0.7 2.2-1.4 3.9-1.1 1.8-1.4 3.2-1.4 4.3 0 0.7 0.3 1.1 1.4 1.4 0.7 0.4 1.1 1.5 1.1 4 0 2.5-0.8 3.9-2.2 5-0.3 0.3-0.7 1-0.7 2.8 0 0.4 0 1.1 0.4 1.8 0.3 0.7 0.7 2.5 1 5 0.4 2.5 0.4 5.7 0.7 8.9 1.1 17.5 2.2 30.3 3.6 38.5 1.1 5.7 1.8 8.6 2.2 8.6zm249.6-53.5c-1.8 0-2.9-0.4-2.9-1.1 0-1.8 1.5-2.5 4.7-2.5 2.8 0 3.9 0.4 3.9 1.1v0.3c-1.1 1.5-2.9 2.2-5.7 2.2zm-148.7-18.2c0.3-1.8 1-3.6 1.4-5.4 0.4-1.7 1.1-3.2 2.1-4.9 0.8-1.8 1.5-3.3 2.5-4.3 0.8-1.4 1.1-2.2 1.1-2.2v-0.3l-1.8 0.7c-0.3 0-0.3 0-0.3-0.4 0-0.3 0-1 0.3-2.1 0.4-1.1 1.1-1.4 1.8-1.8l1.1 0.4c0.3 0 0.7 0 0.7-0.4l-0.4-2.1c0-1.5 0.4-3.9 1.1-7.2 2.5-9.2 5.4-15.3 8.6-18.5 1.7-2.5 2.8-4.6 2.8-6.1 0-1.4 2.2-6.4 6.4-14.2 3.6-6.1 5.7-10.7 5.7-13.2l-0.7-2.5 1.5 0.7c0.3 0 1-0.4 1.7-1.1 2.2-1.4 3.2-3.9 4-7.5 0-2.1 0.7-3.9 2.1-4.6 1.4-1.1 2.9-2.5 4.3-4.6 2.1-3.6 3.5-6.8 3.5-9 0-0.3 0-0.7-0.3-1l-0.4-0.4c0-0.3 0.4-0.3 0.7-0.3h1.8c1.5 0 2.9-1.1 4-3.6 1-2.5 2.8-4.6 6-6.4 2.9-1.1 4.3-2.5 4.3-3.6 0-1.1 1.4-3.2 4.6-6.4 2.5-2.5 4-3.6 5-3.6l1.1 0.7c0.3 0 0.7-0.3 0.7-1.4 0-0.7 1.1-1.8 2.9-3.6 1.7-1.4 3.5-2.8 6-4.2 2.5-1.5 4.3-2.5 5.7-2.9 1.5-0.3 2.9-0.7 3.6-0.7 1.4 0 3.2 2.9 4.6 7.8 1.5 5.4 2.9 8.6 4.3 10 0.7 0.4 1.1 0.7 1.1 1.5 0 1.7-3.2 5.7-9.3 12.1-12.5 12.8-25 28.2-37.8 46.7-13.9 19.3-27.8 36.7-41.4 52.4-3.9 4.7-9.6 10.4-16.7 17.5zm174.4-25.7h-0.4c0-0.3 0.7-1 2.1-2.5 7.5-7.8 14-15.3 19.3-22.8 7.1-9.6 11.8-17.1 14.3-22.1 2.1-4.6 3.9-8.2 5.3-9.6 2.9-4.7 6.8-13.6 11.4-26.8 4.7-13.2 8.6-25.3 11.8-36.4 2.8-11 6.4-31 10.3-60.2 0.8-4.7 1.1-7.2 1.1-7.2 0.4 0 0.4 1.1 0.4 3.3l-0.4 12.4c-0.3 12.5-1.1 21.4-1.8 26.1-1 4.2-2.8 12.1-5 23.9-5 22.1-11.4 42-19.2 59.9-10.4 21.7-16.1 32.8-18.2 32.8-1.1 0-1.8 1-2.5 3.2-0.4 1.1-1.8 2.8-3.6 5.3-4.6 5.7-9.6 11.1-15 15.4-4.2 3.5-7.8 5.3-9.9 5.3zm-194-36.7v-0.4c0-0.3 0-1 0.3-1.7 0.4-1.1 1.1-1.8 1.4-2.2 0.4-0.3 0.8-0.3 0.8-0.3l0.7 0.3c0 1.1-0.7 2.2-1.5 2.9-1 0.7-1.4 1.4-1.7 1.4zm178.6-30.7h-0.7c-0.7 0-1.1-0.3-1.1-1.8 0-0.7 0.4-1.4 0.8-2.5 0.7-1 1-1.7 1.7-1.7 0.8 0 1.1 0.7 1.1 2.1 0 2.1-0.7 3.2-1.8 3.9zm-31-14.2h-0.4c-0.3 0-0.3-0.4-0.3-1.5 0-0.3 0.3-1 0.7-1.8 0.4-1 1.1-1.4 1.8-1.4 0.3 0 0.3 0.4 0.3 0.7 0 1.8-0.7 3.2-2.1 4zm-181.2-20.4c-0.3 0-1-0.3-2.1-1-1.1-0.4-1.8-1.1-2.5-2.2-0.7-1.1-1.4-1.8-1.4-2.1l1.4 0.7c1.1 0 2.5-1.8 3.9-4.6 1.5-3.3 2.5-4.7 2.9-4.7 1.1 0 1.8 1.4 1.8 4.3 0 1.8-0.7 3.6-1.8 4.6-1.1 1.5-1.4 2.5-1.4 3.2l0.3 1.5c0 0.3-0.3 0.3-1.1 0.3zm5.7-12.5l0.4-1.4c0.7-3.5 1.1-5.7 1.1-6.8 0-1 0.3-2.1 0.7-3.2 0.3-1 1.1-1.4 1.4-1.4 0.7 0 1.4 0.4 1.4 1.1 0 3.5-1 6.8-3.2 9.3zm107.4-8.6c0-0.4 1.8-1.8 5-4.6 1.7-1.8 3.2-2.9 4.2-2.9 0.4 0 0.4 0 0.4 0.4 0 1-1.4 2.8-4.3 4.6-2.8 1.8-4.6 2.5-5.3 2.5zm-98.1-5.4v-0.3c0-0.4 0-1.1 0.7-2.2 0.4-1.4 1.1-2.1 1.4-2.1 0.8 0 1.1 0.4 1.1 0.7 0 0.7-0.7 1.8-1.4 2.5-1.1 1.1-1.4 1.4-1.8 1.4zm110.2-2.8c-0.4 0-0.7 0-0.7-0.7 0-0.7 1.1-2.2 3.5-4.7 1.8-1.4 3.3-2.1 3.6-2.1 0.4 0 0.4 0 0.4 0.4 0 0.3 0 0.3 0.3 0.3l1.8-1.1c1.4-1 2.2-1.4 2.9-1.4 0.3 0 0.3 0.7 0.3 1.8 0 1.1 0.7 1.4 2.2 1.4 0.7 0 1-0.3 1-1l-0.3-1.5c0-0.3 0-0.3 0.3-0.3 0.4 0 1.1 0 2.2 0.7 1 0.3 1.4 0.7 1.4 1.1 0 0.7-1.8 1.4-5.7 2.1-1.4 0-2.9 0.4-4.6 1.1-1.8 0.7-3.6 1.4-5 2.5-1.8 1-2.9 1.4-3.6 1.4zm30.7-10.7h-0.4c-0.3 0-0.7 0-1.1-0.4-0.3-0.3-0.7-1-1-2.1-0.4-1.1-0.4-1.4-0.4-1.8v-0.3c0.4 0 0.7 0.3 1.8 1.4 0.7 0.7 1.4 1.8 1.4 2.5zm145.2-103.8c-0.4 0-2.9-2.5-7.2-7.8-2.8-3.6-4.2-5.7-4.2-6.1 0.7 0 3.2 2.5 7.8 7.1 2.5 2.9 3.9 5 3.9 6.4zm-37.4-29.9c-1.8 0-3.6-0.4-4.7-1.4-1-1.1-1.4-1.8-1.4-1.8 0-0.4 0-0.4 0.4-0.4 0.3 0 1 0 2.1 0.4 1.1 0.3 1.8 1.1 2.9 1.8 0.7 0.3 1 1 1 1 0 0.4 0 0.4-0.3 0.4zm-323.1 359.5c0.3 0 0.7-1.1 0.7-3.2 0-1.8-0.4-2.5-0.7-2.5-0.4 0-0.4 1-0.4 2.8 0 1.8 0 2.9 0.4 2.9zm-1.4-31.4c0.3-0.4 0.3-0.7 0.3-1.4 0-2.2-0.3-2.9-0.7-2.9-0.4 0-0.7 0.4-0.7 1.8 0 1.1 0 1.8 0.3 2.1 0 0.4 0 0.4 0.4 0.4zm0-9.3c0.4-0.4 0.4-0.7 0.4-1.4 0-2.2-0.4-2.9-0.8-2.9-0.3 0-0.7 0.4-0.7 1.8 0 1.1 0 1.8 0.4 2.1 0 0.4 0 0.4 0.3 0.4zm1.8-16.8l0.7-1.7c0-0.4-0.3-1.1-0.7-1.8l-0.3-0.7c-0.4 0-0.7 0.3-0.7 1.7 0 1.8 0.3 2.5 0.7 2.5zm1.8-16.7c0.3-0.4 0.7-1.1 0.7-1.8 0-1.8-0.4-2.5-1.1-2.5-0.4 0-0.7 0.4-0.7 1.8 0 1.8 0.3 2.5 0.7 2.5zm15.7-5.4c1.1 0 1.8-0.7 1.8-1.7 0-1.1-0.4-1.8-0.7-1.8-0.4 0-0.8 0.3-1.5 1-0.3 0.4-0.7 1.1-0.7 1.5 0 0.7 0.4 1 1.1 1zm62.8-11.7c0 0 0.7 0 1.4-0.7 0.7-0.4 1-1.1 1-2.5 0-0.4 0-0.8-0.3-1.1-0.4 0-1.1 0.3-1.8 0.7-1.1 0.4-1.4 1.1-1.4 2.5 0 0.7 0 1.1 0.3 1.1 0.4 0 0.4 0 0.8 0zm-55.3-16.1c1 0 1.8-1.1 1.8-3.5 0-2.2 0.3-3.3 1-3.3h0.7c0.8 0 1.1-1 1.1-3.5 0-2.2-0.3-3.2-0.7-3.2-0.7 0-1.8 2.5-3.6 7.5-0.7 2.1-1 3.9-1 4.9 0 0.8 0.3 1.1 0.7 1.1zm5.3-16.7c1.5 0 2.2-0.8 2.2-1.8 0-1.5-0.4-2.2-0.7-2.2-0.4 0-0.8 0.4-1.5 1.1-0.7 0.7-0.7 1.1-0.7 1.8 0 0.7 0 1.1 0.7 1.1zm72.1-42.8c0.3 0 0.7-0.4 1-0.7 0.4-0.4 0.4-0.8 0.7-1.1 0.4-0.7 0.4-1.1 0.4-1.4 0-0.4-0.4-0.8-1.1-0.8-1 0-1.8 0.8-1.8 1.8 0 1.5 0.4 2.2 0.8 2.2zm3.9-6.5c0 0 0.3 0 1.1-0.3 0.3-0.4 1-0.7 1.4-1.4 0.3-0.4 0.3-1.1 0.3-1.5 0-0.3 0-0.7-0.3-1-0.4 0-1.1 0.3-2.2 0.7-1 0.3-1.4 1-1.4 2.5 0 0.7 0.4 1 1.1 1z"/>
	</g>
</svg>